<svg xmlns="http://www.w3.org/2000/svg" viewBox="0 0 200 200" width="200" height="200">
  <rect width="200" height="200" rx="20" fill="#b2ebf2"/>
  <path d="M10,150 Q60,142 100,150 Q140,158 190,150" stroke="#039be5" stroke-width="2.5" fill="none" opacity="0.5"/><path d="M10,168 Q60,160 100,168 Q140,176 190,168" stroke="#039be5" stroke-width="2.5" fill="none" opacity="0.5"/><path d="M10,186 Q60,178 100,186 Q140,194 190,186" stroke="#039be5" stroke-width="2.5" fill="none" opacity="0.5"/>
  <circle cx="100" cy="105" r="100" fill="none" stroke="#00897b" stroke-width="1.5" opacity="0.15"/><circle cx="100" cy="105" r="110" fill="none" stroke="#00897b" stroke-width="1.5" opacity="0.22"/><circle cx="100" cy="105" r="120" fill="none" stroke="#00897b" stroke-width="1.5" opacity="0.29"/><circle cx="100" cy="105" r="130" fill="none" stroke="#00897b" stroke-width="1.5" opacity="0.36"/><circle cx="100" cy="105" r="140" fill="none" stroke="#00897b" stroke-width="1.5" opacity="0.43"/>
  <circle cx="100" cy="105" r="88" fill="#00897b" opacity="0.9"/>
  <circle cx="100" cy="105" r="78" fill="#039be5" opacity="0.85"/>
  <text x="100" y="30" text-anchor="middle" font-family="system-ui,sans-serif" font-size="11" font-weight="600" fill="#039be5" opacity="0.75">Ocean World</text>
  <text x="100" y="188" text-anchor="middle" font-family="system-ui,sans-serif" font-size="10" fill="#00897b" opacity="0.8">Step 5 · ✦✦✦✦✦✦</text>
</svg>