<svg xmlns="http://www.w3.org/2000/svg" viewBox="0 0 200 200" width="200" height="200">
  <rect width="200" height="200" rx="20" fill="#060d1a"/>
  <circle cx="140" cy="96" r="1.6" fill="#ffe066" opacity="0.7"/><circle cx="63" cy="12" r="2.0" fill="#ffe066" opacity="0.7"/><circle cx="98" cy="21" r="1.4" fill="#ffe066" opacity="0.7"/><circle cx="83" cy="92" r="0.9" fill="#ffe066" opacity="0.7"/><circle cx="135" cy="44" r="0.9" fill="#ffe066" opacity="0.7"/><circle cx="93" cy="161" r="0.8" fill="#ffe066" opacity="0.7"/><circle cx="44" cy="139" r="0.9" fill="#ffe066" opacity="0.7"/><circle cx="20" cy="99" r="1.2" fill="#ffe066" opacity="0.7"/><circle cx="146" cy="185" r="2.0" fill="#ffe066" opacity="0.7"/><circle cx="104" cy="47" r="1.6" fill="#ffe066" opacity="0.7"/><circle cx="167" cy="84" r="1.2" fill="#ffe066" opacity="0.7"/><circle cx="85" cy="59" r="1.1" fill="#ffe066" opacity="0.7"/><circle cx="142" cy="50" r="1.7" fill="#ffe066" opacity="0.7"/><circle cx="151" cy="188" r="1.3" fill="#ffe066" opacity="0.7"/><circle cx="113" cy="65" r="1.1" fill="#ffe066" opacity="0.7"/><circle cx="33" cy="153" r="1.7" fill="#ffe066" opacity="0.7"/><circle cx="24" cy="118" r="1.2" fill="#ffe066" opacity="0.7"/><circle cx="34" cy="153" r="1.2" fill="#ffe066" opacity="0.7"/><circle cx="55" cy="49" r="1.4" fill="#ffe066" opacity="0.7"/><circle cx="92" cy="120" r="2.0" fill="#ffe066" opacity="0.7"/>
  <circle cx="100" cy="105" r="40" fill="none" stroke="#ff5577" stroke-width="1.5" opacity="0.15"/>
  <circle cx="100" cy="105" r="28" fill="#ff5577" opacity="0.9"/>
  <circle cx="100" cy="105" r="18" fill="#ffe066" opacity="0.85"/>
  <text x="100" y="30" text-anchor="middle" font-family="system-ui,sans-serif" font-size="11" font-weight="600" fill="#ffe066" opacity="0.75">Space Explorer</text>
  <text x="100" y="188" text-anchor="middle" font-family="system-ui,sans-serif" font-size="10" fill="#ff5577" opacity="0.8">Step 1 · ★★</text>
</svg>