<svg xmlns="http://www.w3.org/2000/svg" viewBox="0 0 200 200" width="200" height="200">
  <rect width="200" height="200" rx="20" fill="#0d1b2a"/>
  <circle cx="87" cy="43" r="1.4" fill="#ffd700" opacity="0.7"/><circle cx="17" cy="23" r="1.9" fill="#ffd700" opacity="0.7"/><circle cx="29" cy="98" r="1.6" fill="#ffd700" opacity="0.7"/><circle cx="134" cy="59" r="0.9" fill="#ffd700" opacity="0.7"/><circle cx="116" cy="112" r="0.9" fill="#ffd700" opacity="0.7"/><circle cx="28" cy="146" r="1.4" fill="#ffd700" opacity="0.7"/><circle cx="149" cy="36" r="2.1" fill="#ffd700" opacity="0.7"/><circle cx="166" cy="165" r="1.6" fill="#ffd700" opacity="0.7"/><circle cx="20" cy="152" r="1.6" fill="#ffd700" opacity="0.7"/><circle cx="17" cy="61" r="0.9" fill="#ffd700" opacity="0.7"/><circle cx="39" cy="79" r="1.4" fill="#ffd700" opacity="0.7"/><circle cx="143" cy="35" r="1.6" fill="#ffd700" opacity="0.7"/><circle cx="148" cy="179" r="1.1" fill="#ffd700" opacity="0.7"/><circle cx="153" cy="151" r="1.7" fill="#ffd700" opacity="0.7"/><circle cx="100" cy="29" r="1.6" fill="#ffd700" opacity="0.7"/><circle cx="21" cy="149" r="0.9" fill="#ffd700" opacity="0.7"/><circle cx="57" cy="132" r="1.8" fill="#ffd700" opacity="0.7"/><circle cx="114" cy="85" r="1.5" fill="#ffd700" opacity="0.7"/><circle cx="121" cy="97" r="1.2" fill="#ffd700" opacity="0.7"/><circle cx="51" cy="183" r="1.9" fill="#ffd700" opacity="0.7"/>
  
  <circle cx="100" cy="105" r="18" fill="#e94560" opacity="0.9"/>
  <circle cx="100" cy="105" r="8" fill="#ffd700" opacity="0.85"/>
  <text x="100" y="30" text-anchor="middle" font-family="system-ui,sans-serif" font-size="11" font-weight="600" fill="#ffd700" opacity="0.75">Space Explorer</text>
  <text x="100" y="188" text-anchor="middle" font-family="system-ui,sans-serif" font-size="10" fill="#e94560" opacity="0.8">Step 0 · ★</text>
</svg>