<svg xmlns="http://www.w3.org/2000/svg" viewBox="0 0 200 200" width="200" height="200">
  <rect width="200" height="200" rx="20" fill="#0d1b2a"/>
  <circle cx="151" cy="47" r="1.7" fill="#ffd700" opacity="0.7"/><circle cx="75" cy="127" r="1.7" fill="#ffd700" opacity="0.7"/><circle cx="141" cy="140" r="1.1" fill="#ffd700" opacity="0.7"/><circle cx="171" cy="162" r="2.1" fill="#ffd700" opacity="0.7"/><circle cx="87" cy="180" r="1.5" fill="#ffd700" opacity="0.7"/><circle cx="118" cy="77" r="2.1" fill="#ffd700" opacity="0.7"/><circle cx="167" cy="23" r="1.2" fill="#ffd700" opacity="0.7"/><circle cx="84" cy="137" r="1.5" fill="#ffd700" opacity="0.7"/><circle cx="18" cy="195" r="1.7" fill="#ffd700" opacity="0.7"/><circle cx="193" cy="178" r="1.4" fill="#ffd700" opacity="0.7"/><circle cx="76" cy="86" r="1.6" fill="#ffd700" opacity="0.7"/><circle cx="179" cy="67" r="1.0" fill="#ffd700" opacity="0.7"/><circle cx="19" cy="86" r="2.2" fill="#ffd700" opacity="0.7"/><circle cx="77" cy="59" r="2.2" fill="#ffd700" opacity="0.7"/><circle cx="21" cy="98" r="1.0" fill="#ffd700" opacity="0.7"/><circle cx="87" cy="67" r="1.5" fill="#ffd700" opacity="0.7"/><circle cx="86" cy="6" r="1.3" fill="#ffd700" opacity="0.7"/><circle cx="173" cy="82" r="1.6" fill="#ffd700" opacity="0.7"/><circle cx="104" cy="52" r="1.8" fill="#ffd700" opacity="0.7"/><circle cx="13" cy="98" r="2.0" fill="#ffd700" opacity="0.7"/>
  <circle cx="100" cy="105" r="52" fill="none" stroke="#e94560" stroke-width="1.5" opacity="0.15"/><circle cx="100" cy="105" r="62" fill="none" stroke="#e94560" stroke-width="1.5" opacity="0.22"/>
  <circle cx="100" cy="105" r="40" fill="#e94560" opacity="0.9"/>
  <circle cx="100" cy="105" r="30" fill="#ffd700" opacity="0.85"/>
  <text x="100" y="30" text-anchor="middle" font-family="system-ui,sans-serif" font-size="11" font-weight="600" fill="#ffd700" opacity="0.75">Space Explorer</text>
  <text x="100" y="188" text-anchor="middle" font-family="system-ui,sans-serif" font-size="10" fill="#e94560" opacity="0.8">Step 2 · ★★★</text>
</svg>