<svg xmlns="http://www.w3.org/2000/svg" viewBox="0 0 200 200" width="200" height="200">
  <rect width="200" height="200" rx="20" fill="#060d1a"/>
  <circle cx="83" cy="77" r="1.6" fill="#ffe066" opacity="0.7"/><circle cx="72" cy="63" r="1.9" fill="#ffe066" opacity="0.7"/><circle cx="124" cy="90" r="2.2" fill="#ffe066" opacity="0.7"/><circle cx="15" cy="28" r="1.7" fill="#ffe066" opacity="0.7"/><circle cx="52" cy="44" r="1.3" fill="#ffe066" opacity="0.7"/><circle cx="66" cy="168" r="1.9" fill="#ffe066" opacity="0.7"/><circle cx="7" cy="110" r="1.9" fill="#ffe066" opacity="0.7"/><circle cx="47" cy="38" r="1.2" fill="#ffe066" opacity="0.7"/><circle cx="165" cy="177" r="1.0" fill="#ffe066" opacity="0.7"/><circle cx="157" cy="147" r="1.9" fill="#ffe066" opacity="0.7"/><circle cx="17" cy="158" r="1.6" fill="#ffe066" opacity="0.7"/><circle cx="82" cy="43" r="0.8" fill="#ffe066" opacity="0.7"/><circle cx="150" cy="61" r="1.2" fill="#ffe066" opacity="0.7"/><circle cx="66" cy="144" r="1.2" fill="#ffe066" opacity="0.7"/><circle cx="61" cy="37" r="1.8" fill="#ffe066" opacity="0.7"/><circle cx="70" cy="57" r="1.8" fill="#ffe066" opacity="0.7"/><circle cx="55" cy="153" r="1.7" fill="#ffe066" opacity="0.7"/><circle cx="36" cy="133" r="1.2" fill="#ffe066" opacity="0.7"/><circle cx="131" cy="98" r="1.3" fill="#ffe066" opacity="0.7"/><circle cx="139" cy="170" r="0.9" fill="#ffe066" opacity="0.7"/>
  <circle cx="100" cy="105" r="67" fill="none" stroke="#ff5577" stroke-width="1.5" opacity="0.15"/><circle cx="100" cy="105" r="77" fill="none" stroke="#ff5577" stroke-width="1.5" opacity="0.22"/><circle cx="100" cy="105" r="87" fill="none" stroke="#ff5577" stroke-width="1.5" opacity="0.29"/>
  <circle cx="100" cy="105" r="55" fill="#ff5577" opacity="0.9"/>
  <circle cx="100" cy="105" r="45" fill="#ffe066" opacity="0.85"/>
  <text x="100" y="30" text-anchor="middle" font-family="system-ui,sans-serif" font-size="11" font-weight="600" fill="#ffe066" opacity="0.75">Space Explorer</text>
  <text x="100" y="188" text-anchor="middle" font-family="system-ui,sans-serif" font-size="10" fill="#ff5577" opacity="0.8">Step 3 · ★★★★</text>
</svg>