<svg xmlns="http://www.w3.org/2000/svg" viewBox="0 0 200 200" width="200" height="200">
  <rect width="200" height="200" rx="20" fill="#0d1b2a"/>
  <circle cx="24" cy="107" r="0.9" fill="#ffd700" opacity="0.7"/><circle cx="155" cy="63" r="1.7" fill="#ffd700" opacity="0.7"/><circle cx="43" cy="154" r="1.6" fill="#ffd700" opacity="0.7"/><circle cx="13" cy="12" r="0.9" fill="#ffd700" opacity="0.7"/><circle cx="86" cy="166" r="2.0" fill="#ffd700" opacity="0.7"/><circle cx="12" cy="39" r="1.6" fill="#ffd700" opacity="0.7"/><circle cx="80" cy="140" r="1.3" fill="#ffd700" opacity="0.7"/><circle cx="187" cy="28" r="1.4" fill="#ffd700" opacity="0.7"/><circle cx="185" cy="127" r="1.3" fill="#ffd700" opacity="0.7"/><circle cx="125" cy="124" r="2.0" fill="#ffd700" opacity="0.7"/><circle cx="122" cy="183" r="1.6" fill="#ffd700" opacity="0.7"/><circle cx="33" cy="115" r="1.1" fill="#ffd700" opacity="0.7"/><circle cx="134" cy="118" r="1.9" fill="#ffd700" opacity="0.7"/><circle cx="75" cy="44" r="0.9" fill="#ffd700" opacity="0.7"/><circle cx="95" cy="22" r="1.7" fill="#ffd700" opacity="0.7"/><circle cx="122" cy="108" r="1.1" fill="#ffd700" opacity="0.7"/><circle cx="82" cy="96" r="1.9" fill="#ffd700" opacity="0.7"/><circle cx="57" cy="34" r="1.6" fill="#ffd700" opacity="0.7"/><circle cx="161" cy="188" r="1.8" fill="#ffd700" opacity="0.7"/><circle cx="178" cy="85" r="0.9" fill="#ffd700" opacity="0.7"/>
  <circle cx="100" cy="105" r="67" fill="none" stroke="#e94560" stroke-width="1.5" opacity="0.15"/><circle cx="100" cy="105" r="77" fill="none" stroke="#e94560" stroke-width="1.5" opacity="0.22"/><circle cx="100" cy="105" r="87" fill="none" stroke="#e94560" stroke-width="1.5" opacity="0.29"/>
  <circle cx="100" cy="105" r="55" fill="#e94560" opacity="0.9"/>
  <circle cx="100" cy="105" r="45" fill="#ffd700" opacity="0.85"/>
  <text x="100" y="30" text-anchor="middle" font-family="system-ui,sans-serif" font-size="11" font-weight="600" fill="#ffd700" opacity="0.75">Space Explorer</text>
  <text x="100" y="188" text-anchor="middle" font-family="system-ui,sans-serif" font-size="10" fill="#e94560" opacity="0.8">Step 3 · ★★★★</text>
</svg>