<svg xmlns="http://www.w3.org/2000/svg" viewBox="0 0 200 200" width="200" height="200">
  <rect width="200" height="200" rx="20" fill="#0a1628"/>
  <circle cx="32" cy="162" r="1.8" fill="#ffcc00" opacity="0.7"/><circle cx="171" cy="139" r="2.1" fill="#ffcc00" opacity="0.7"/><circle cx="74" cy="193" r="1.2" fill="#ffcc00" opacity="0.7"/><circle cx="192" cy="23" r="1.7" fill="#ffcc00" opacity="0.7"/><circle cx="82" cy="124" r="1.8" fill="#ffcc00" opacity="0.7"/><circle cx="106" cy="105" r="1.9" fill="#ffcc00" opacity="0.7"/><circle cx="35" cy="72" r="1.1" fill="#ffcc00" opacity="0.7"/><circle cx="85" cy="96" r="1.9" fill="#ffcc00" opacity="0.7"/><circle cx="97" cy="166" r="1.7" fill="#ffcc00" opacity="0.7"/><circle cx="43" cy="46" r="1.6" fill="#ffcc00" opacity="0.7"/><circle cx="174" cy="75" r="1.0" fill="#ffcc00" opacity="0.7"/><circle cx="171" cy="22" r="1.0" fill="#ffcc00" opacity="0.7"/><circle cx="91" cy="12" r="0.9" fill="#ffcc00" opacity="0.7"/><circle cx="57" cy="102" r="1.4" fill="#ffcc00" opacity="0.7"/><circle cx="117" cy="160" r="0.9" fill="#ffcc00" opacity="0.7"/><circle cx="169" cy="180" r="2.0" fill="#ffcc00" opacity="0.7"/><circle cx="153" cy="155" r="1.7" fill="#ffcc00" opacity="0.7"/><circle cx="98" cy="51" r="2.0" fill="#ffcc00" opacity="0.7"/><circle cx="129" cy="136" r="1.7" fill="#ffcc00" opacity="0.7"/><circle cx="74" cy="120" r="1.7" fill="#ffcc00" opacity="0.7"/>
  
  <circle cx="100" cy="105" r="18" fill="#c23152" opacity="0.9"/>
  <circle cx="100" cy="105" r="8" fill="#ffcc00" opacity="0.85"/>
  <text x="100" y="30" text-anchor="middle" font-family="system-ui,sans-serif" font-size="11" font-weight="600" fill="#ffcc00" opacity="0.75">Space Explorer</text>
  <text x="100" y="188" text-anchor="middle" font-family="system-ui,sans-serif" font-size="10" fill="#c23152" opacity="0.8">Step 0 · ★</text>
</svg>