<svg xmlns="http://www.w3.org/2000/svg" viewBox="0 0 200 200" width="200" height="200">
  <rect width="200" height="200" rx="20" fill="#0a1628"/>
  <circle cx="23" cy="84" r="1.4" fill="#ffcc00" opacity="0.7"/><circle cx="68" cy="119" r="1.2" fill="#ffcc00" opacity="0.7"/><circle cx="148" cy="29" r="1.8" fill="#ffcc00" opacity="0.7"/><circle cx="131" cy="52" r="1.5" fill="#ffcc00" opacity="0.7"/><circle cx="37" cy="188" r="0.9" fill="#ffcc00" opacity="0.7"/><circle cx="98" cy="191" r="1.0" fill="#ffcc00" opacity="0.7"/><circle cx="191" cy="185" r="1.4" fill="#ffcc00" opacity="0.7"/><circle cx="134" cy="12" r="1.5" fill="#ffcc00" opacity="0.7"/><circle cx="103" cy="39" r="1.3" fill="#ffcc00" opacity="0.7"/><circle cx="7" cy="186" r="1.1" fill="#ffcc00" opacity="0.7"/><circle cx="124" cy="162" r="1.1" fill="#ffcc00" opacity="0.7"/><circle cx="86" cy="159" r="1.5" fill="#ffcc00" opacity="0.7"/><circle cx="83" cy="56" r="1.2" fill="#ffcc00" opacity="0.7"/><circle cx="56" cy="87" r="2.2" fill="#ffcc00" opacity="0.7"/><circle cx="95" cy="108" r="0.9" fill="#ffcc00" opacity="0.7"/><circle cx="27" cy="108" r="1.2" fill="#ffcc00" opacity="0.7"/><circle cx="161" cy="35" r="1.3" fill="#ffcc00" opacity="0.7"/><circle cx="159" cy="111" r="0.9" fill="#ffcc00" opacity="0.7"/><circle cx="106" cy="148" r="1.8" fill="#ffcc00" opacity="0.7"/><circle cx="194" cy="159" r="1.4" fill="#ffcc00" opacity="0.7"/>
  <circle cx="100" cy="105" r="82" fill="none" stroke="#c23152" stroke-width="1.5" opacity="0.15"/><circle cx="100" cy="105" r="92" fill="none" stroke="#c23152" stroke-width="1.5" opacity="0.22"/><circle cx="100" cy="105" r="102" fill="none" stroke="#c23152" stroke-width="1.5" opacity="0.29"/><circle cx="100" cy="105" r="112" fill="none" stroke="#c23152" stroke-width="1.5" opacity="0.36"/>
  <circle cx="100" cy="105" r="70" fill="#c23152" opacity="0.9"/>
  <circle cx="100" cy="105" r="60" fill="#ffcc00" opacity="0.85"/>
  <text x="100" y="30" text-anchor="middle" font-family="system-ui,sans-serif" font-size="11" font-weight="600" fill="#ffcc00" opacity="0.75">Space Explorer</text>
  <text x="100" y="188" text-anchor="middle" font-family="system-ui,sans-serif" font-size="10" fill="#c23152" opacity="0.8">Step 4 · ★★★★★</text>
</svg>