<svg xmlns="http://www.w3.org/2000/svg" viewBox="0 0 200 200" width="200" height="200">
  <rect width="200" height="200" rx="20" fill="#060d1a"/>
  <circle cx="47" cy="112" r="1.8" fill="#ffe066" opacity="0.7"/><circle cx="167" cy="77" r="1.5" fill="#ffe066" opacity="0.7"/><circle cx="60" cy="126" r="1.9" fill="#ffe066" opacity="0.7"/><circle cx="136" cy="51" r="1.5" fill="#ffe066" opacity="0.7"/><circle cx="65" cy="5" r="0.8" fill="#ffe066" opacity="0.7"/><circle cx="154" cy="114" r="0.9" fill="#ffe066" opacity="0.7"/><circle cx="64" cy="64" r="1.8" fill="#ffe066" opacity="0.7"/><circle cx="116" cy="194" r="1.9" fill="#ffe066" opacity="0.7"/><circle cx="109" cy="162" r="1.4" fill="#ffe066" opacity="0.7"/><circle cx="89" cy="143" r="1.5" fill="#ffe066" opacity="0.7"/><circle cx="34" cy="171" r="2.1" fill="#ffe066" opacity="0.7"/><circle cx="99" cy="10" r="1.0" fill="#ffe066" opacity="0.7"/><circle cx="27" cy="36" r="1.9" fill="#ffe066" opacity="0.7"/><circle cx="10" cy="121" r="1.0" fill="#ffe066" opacity="0.7"/><circle cx="191" cy="92" r="1.4" fill="#ffe066" opacity="0.7"/><circle cx="43" cy="52" r="1.7" fill="#ffe066" opacity="0.7"/><circle cx="125" cy="65" r="0.9" fill="#ffe066" opacity="0.7"/><circle cx="55" cy="58" r="1.7" fill="#ffe066" opacity="0.7"/><circle cx="173" cy="153" r="2.2" fill="#ffe066" opacity="0.7"/><circle cx="23" cy="36" r="1.6" fill="#ffe066" opacity="0.7"/>
  
  <circle cx="100" cy="105" r="18" fill="#ff5577" opacity="0.9"/>
  <circle cx="100" cy="105" r="8" fill="#ffe066" opacity="0.85"/>
  <text x="100" y="30" text-anchor="middle" font-family="system-ui,sans-serif" font-size="11" font-weight="600" fill="#ffe066" opacity="0.75">Space Explorer</text>
  <text x="100" y="188" text-anchor="middle" font-family="system-ui,sans-serif" font-size="10" fill="#ff5577" opacity="0.8">Step 0 · ★</text>
</svg>