<svg xmlns="http://www.w3.org/2000/svg" viewBox="0 0 200 200" width="200" height="200">
  <rect width="200" height="200" rx="20" fill="#0d1b2a"/>
  <circle cx="190" cy="180" r="1.9" fill="#ffd700" opacity="0.7"/><circle cx="43" cy="71" r="1.7" fill="#ffd700" opacity="0.7"/><circle cx="30" cy="88" r="1.6" fill="#ffd700" opacity="0.7"/><circle cx="48" cy="11" r="1.4" fill="#ffd700" opacity="0.7"/><circle cx="24" cy="31" r="1.0" fill="#ffd700" opacity="0.7"/><circle cx="126" cy="153" r="1.4" fill="#ffd700" opacity="0.7"/><circle cx="58" cy="56" r="1.2" fill="#ffd700" opacity="0.7"/><circle cx="179" cy="90" r="1.3" fill="#ffd700" opacity="0.7"/><circle cx="28" cy="165" r="1.5" fill="#ffd700" opacity="0.7"/><circle cx="130" cy="108" r="0.9" fill="#ffd700" opacity="0.7"/><circle cx="151" cy="67" r="0.8" fill="#ffd700" opacity="0.7"/><circle cx="29" cy="26" r="1.1" fill="#ffd700" opacity="0.7"/><circle cx="182" cy="77" r="1.2" fill="#ffd700" opacity="0.7"/><circle cx="70" cy="46" r="1.7" fill="#ffd700" opacity="0.7"/><circle cx="10" cy="73" r="1.8" fill="#ffd700" opacity="0.7"/><circle cx="61" cy="151" r="1.1" fill="#ffd700" opacity="0.7"/><circle cx="8" cy="170" r="1.7" fill="#ffd700" opacity="0.7"/><circle cx="76" cy="40" r="1.8" fill="#ffd700" opacity="0.7"/><circle cx="90" cy="158" r="1.8" fill="#ffd700" opacity="0.7"/><circle cx="44" cy="168" r="1.2" fill="#ffd700" opacity="0.7"/>
  <circle cx="100" cy="105" r="40" fill="none" stroke="#e94560" stroke-width="1.5" opacity="0.15"/>
  <circle cx="100" cy="105" r="28" fill="#e94560" opacity="0.9"/>
  <circle cx="100" cy="105" r="18" fill="#ffd700" opacity="0.85"/>
  <text x="100" y="30" text-anchor="middle" font-family="system-ui,sans-serif" font-size="11" font-weight="600" fill="#ffd700" opacity="0.75">Space Explorer</text>
  <text x="100" y="188" text-anchor="middle" font-family="system-ui,sans-serif" font-size="10" fill="#e94560" opacity="0.8">Step 1 · ★★</text>
</svg>