<svg xmlns="http://www.w3.org/2000/svg" viewBox="0 0 200 200" width="200" height="200">
  <rect width="200" height="200" rx="20" fill="#0a1628"/>
  <circle cx="171" cy="127" r="1.8" fill="#ffcc00" opacity="0.7"/><circle cx="78" cy="55" r="0.9" fill="#ffcc00" opacity="0.7"/><circle cx="70" cy="143" r="1.3" fill="#ffcc00" opacity="0.7"/><circle cx="100" cy="108" r="1.1" fill="#ffcc00" opacity="0.7"/><circle cx="66" cy="130" r="1.9" fill="#ffcc00" opacity="0.7"/><circle cx="191" cy="168" r="1.6" fill="#ffcc00" opacity="0.7"/><circle cx="25" cy="161" r="2.0" fill="#ffcc00" opacity="0.7"/><circle cx="111" cy="194" r="0.9" fill="#ffcc00" opacity="0.7"/><circle cx="117" cy="94" r="0.8" fill="#ffcc00" opacity="0.7"/><circle cx="169" cy="127" r="1.2" fill="#ffcc00" opacity="0.7"/><circle cx="161" cy="91" r="1.7" fill="#ffcc00" opacity="0.7"/><circle cx="63" cy="185" r="1.9" fill="#ffcc00" opacity="0.7"/><circle cx="41" cy="30" r="2.2" fill="#ffcc00" opacity="0.7"/><circle cx="82" cy="14" r="1.9" fill="#ffcc00" opacity="0.7"/><circle cx="140" cy="26" r="1.0" fill="#ffcc00" opacity="0.7"/><circle cx="186" cy="43" r="1.2" fill="#ffcc00" opacity="0.7"/><circle cx="18" cy="49" r="2.2" fill="#ffcc00" opacity="0.7"/><circle cx="171" cy="8" r="1.4" fill="#ffcc00" opacity="0.7"/><circle cx="43" cy="93" r="2.0" fill="#ffcc00" opacity="0.7"/><circle cx="152" cy="111" r="0.9" fill="#ffcc00" opacity="0.7"/>
  <circle cx="100" cy="105" r="40" fill="none" stroke="#c23152" stroke-width="1.5" opacity="0.15"/>
  <circle cx="100" cy="105" r="28" fill="#c23152" opacity="0.9"/>
  <circle cx="100" cy="105" r="18" fill="#ffcc00" opacity="0.85"/>
  <text x="100" y="30" text-anchor="middle" font-family="system-ui,sans-serif" font-size="11" font-weight="600" fill="#ffcc00" opacity="0.75">Space Explorer</text>
  <text x="100" y="188" text-anchor="middle" font-family="system-ui,sans-serif" font-size="10" fill="#c23152" opacity="0.8">Step 1 · ★★</text>
</svg>