<svg xmlns="http://www.w3.org/2000/svg" viewBox="0 0 200 200" width="200" height="200">
  <rect width="200" height="200" rx="20" fill="#0a1628"/>
  <circle cx="122" cy="153" r="2.0" fill="#ffcc00" opacity="0.7"/><circle cx="13" cy="67" r="1.2" fill="#ffcc00" opacity="0.7"/><circle cx="168" cy="175" r="1.1" fill="#ffcc00" opacity="0.7"/><circle cx="94" cy="75" r="2.0" fill="#ffcc00" opacity="0.7"/><circle cx="117" cy="12" r="1.5" fill="#ffcc00" opacity="0.7"/><circle cx="193" cy="38" r="0.9" fill="#ffcc00" opacity="0.7"/><circle cx="56" cy="163" r="1.8" fill="#ffcc00" opacity="0.7"/><circle cx="18" cy="50" r="1.9" fill="#ffcc00" opacity="0.7"/><circle cx="85" cy="34" r="1.2" fill="#ffcc00" opacity="0.7"/><circle cx="88" cy="42" r="1.9" fill="#ffcc00" opacity="0.7"/><circle cx="179" cy="138" r="2.0" fill="#ffcc00" opacity="0.7"/><circle cx="29" cy="109" r="2.0" fill="#ffcc00" opacity="0.7"/><circle cx="85" cy="192" r="1.9" fill="#ffcc00" opacity="0.7"/><circle cx="63" cy="193" r="1.0" fill="#ffcc00" opacity="0.7"/><circle cx="46" cy="138" r="1.2" fill="#ffcc00" opacity="0.7"/><circle cx="79" cy="123" r="1.9" fill="#ffcc00" opacity="0.7"/><circle cx="45" cy="155" r="1.1" fill="#ffcc00" opacity="0.7"/><circle cx="115" cy="137" r="0.9" fill="#ffcc00" opacity="0.7"/><circle cx="154" cy="57" r="1.7" fill="#ffcc00" opacity="0.7"/><circle cx="154" cy="7" r="0.9" fill="#ffcc00" opacity="0.7"/>
  <circle cx="100" cy="105" r="52" fill="none" stroke="#c23152" stroke-width="1.5" opacity="0.15"/><circle cx="100" cy="105" r="62" fill="none" stroke="#c23152" stroke-width="1.5" opacity="0.22"/>
  <circle cx="100" cy="105" r="40" fill="#c23152" opacity="0.9"/>
  <circle cx="100" cy="105" r="30" fill="#ffcc00" opacity="0.85"/>
  <text x="100" y="30" text-anchor="middle" font-family="system-ui,sans-serif" font-size="11" font-weight="600" fill="#ffcc00" opacity="0.75">Space Explorer</text>
  <text x="100" y="188" text-anchor="middle" font-family="system-ui,sans-serif" font-size="10" fill="#c23152" opacity="0.8">Step 2 · ★★★</text>
</svg>