<svg xmlns="http://www.w3.org/2000/svg" viewBox="0 0 200 200" width="200" height="200">
  <rect width="200" height="200" rx="20" fill="#060d1a"/>
  <circle cx="76" cy="36" r="1.5" fill="#ffe066" opacity="0.7"/><circle cx="149" cy="51" r="1.4" fill="#ffe066" opacity="0.7"/><circle cx="155" cy="23" r="1.5" fill="#ffe066" opacity="0.7"/><circle cx="137" cy="133" r="1.1" fill="#ffe066" opacity="0.7"/><circle cx="33" cy="10" r="1.2" fill="#ffe066" opacity="0.7"/><circle cx="11" cy="111" r="1.3" fill="#ffe066" opacity="0.7"/><circle cx="113" cy="132" r="1.6" fill="#ffe066" opacity="0.7"/><circle cx="115" cy="51" r="2.0" fill="#ffe066" opacity="0.7"/><circle cx="72" cy="150" r="1.6" fill="#ffe066" opacity="0.7"/><circle cx="187" cy="28" r="1.4" fill="#ffe066" opacity="0.7"/><circle cx="94" cy="80" r="2.1" fill="#ffe066" opacity="0.7"/><circle cx="63" cy="11" r="1.1" fill="#ffe066" opacity="0.7"/><circle cx="74" cy="75" r="1.8" fill="#ffe066" opacity="0.7"/><circle cx="65" cy="134" r="1.0" fill="#ffe066" opacity="0.7"/><circle cx="162" cy="115" r="0.9" fill="#ffe066" opacity="0.7"/><circle cx="178" cy="25" r="1.7" fill="#ffe066" opacity="0.7"/><circle cx="53" cy="38" r="1.6" fill="#ffe066" opacity="0.7"/><circle cx="117" cy="123" r="1.9" fill="#ffe066" opacity="0.7"/><circle cx="129" cy="186" r="1.6" fill="#ffe066" opacity="0.7"/><circle cx="94" cy="82" r="1.1" fill="#ffe066" opacity="0.7"/>
  <circle cx="100" cy="105" r="82" fill="none" stroke="#ff5577" stroke-width="1.5" opacity="0.15"/><circle cx="100" cy="105" r="92" fill="none" stroke="#ff5577" stroke-width="1.5" opacity="0.22"/><circle cx="100" cy="105" r="102" fill="none" stroke="#ff5577" stroke-width="1.5" opacity="0.29"/><circle cx="100" cy="105" r="112" fill="none" stroke="#ff5577" stroke-width="1.5" opacity="0.36"/>
  <circle cx="100" cy="105" r="70" fill="#ff5577" opacity="0.9"/>
  <circle cx="100" cy="105" r="60" fill="#ffe066" opacity="0.85"/>
  <text x="100" y="30" text-anchor="middle" font-family="system-ui,sans-serif" font-size="11" font-weight="600" fill="#ffe066" opacity="0.75">Space Explorer</text>
  <text x="100" y="188" text-anchor="middle" font-family="system-ui,sans-serif" font-size="10" fill="#ff5577" opacity="0.8">Step 4 · ★★★★★</text>
</svg>