<svg xmlns="http://www.w3.org/2000/svg" viewBox="0 0 200 200" width="200" height="200">
  <rect width="200" height="200" rx="20" fill="#0a1628"/>
  <circle cx="162" cy="60" r="1.4" fill="#ffcc00" opacity="0.7"/><circle cx="187" cy="128" r="2.1" fill="#ffcc00" opacity="0.7"/><circle cx="138" cy="97" r="1.8" fill="#ffcc00" opacity="0.7"/><circle cx="191" cy="12" r="2.0" fill="#ffcc00" opacity="0.7"/><circle cx="14" cy="48" r="2.2" fill="#ffcc00" opacity="0.7"/><circle cx="93" cy="38" r="1.2" fill="#ffcc00" opacity="0.7"/><circle cx="195" cy="19" r="1.0" fill="#ffcc00" opacity="0.7"/><circle cx="97" cy="63" r="1.4" fill="#ffcc00" opacity="0.7"/><circle cx="63" cy="37" r="1.0" fill="#ffcc00" opacity="0.7"/><circle cx="134" cy="170" r="2.0" fill="#ffcc00" opacity="0.7"/><circle cx="135" cy="174" r="1.4" fill="#ffcc00" opacity="0.7"/><circle cx="19" cy="90" r="1.2" fill="#ffcc00" opacity="0.7"/><circle cx="28" cy="178" r="1.6" fill="#ffcc00" opacity="0.7"/><circle cx="104" cy="117" r="2.2" fill="#ffcc00" opacity="0.7"/><circle cx="173" cy="44" r="1.9" fill="#ffcc00" opacity="0.7"/><circle cx="119" cy="170" r="2.0" fill="#ffcc00" opacity="0.7"/><circle cx="64" cy="93" r="1.6" fill="#ffcc00" opacity="0.7"/><circle cx="63" cy="41" r="0.9" fill="#ffcc00" opacity="0.7"/><circle cx="177" cy="29" r="1.9" fill="#ffcc00" opacity="0.7"/><circle cx="18" cy="127" r="2.1" fill="#ffcc00" opacity="0.7"/>
  <circle cx="100" cy="105" r="67" fill="none" stroke="#c23152" stroke-width="1.5" opacity="0.15"/><circle cx="100" cy="105" r="77" fill="none" stroke="#c23152" stroke-width="1.5" opacity="0.22"/><circle cx="100" cy="105" r="87" fill="none" stroke="#c23152" stroke-width="1.5" opacity="0.29"/>
  <circle cx="100" cy="105" r="55" fill="#c23152" opacity="0.9"/>
  <circle cx="100" cy="105" r="45" fill="#ffcc00" opacity="0.85"/>
  <text x="100" y="30" text-anchor="middle" font-family="system-ui,sans-serif" font-size="11" font-weight="600" fill="#ffcc00" opacity="0.75">Space Explorer</text>
  <text x="100" y="188" text-anchor="middle" font-family="system-ui,sans-serif" font-size="10" fill="#c23152" opacity="0.8">Step 3 · ★★★★</text>
</svg>