<svg xmlns="http://www.w3.org/2000/svg" viewBox="0 0 200 200" width="200" height="200">
  <rect width="200" height="200" rx="20" fill="#060d1a"/>
  <circle cx="95" cy="21" r="1.4" fill="#ffe066" opacity="0.7"/><circle cx="121" cy="151" r="1.3" fill="#ffe066" opacity="0.7"/><circle cx="136" cy="103" r="1.3" fill="#ffe066" opacity="0.7"/><circle cx="15" cy="112" r="1.7" fill="#ffe066" opacity="0.7"/><circle cx="31" cy="5" r="1.2" fill="#ffe066" opacity="0.7"/><circle cx="128" cy="190" r="1.6" fill="#ffe066" opacity="0.7"/><circle cx="85" cy="150" r="1.4" fill="#ffe066" opacity="0.7"/><circle cx="65" cy="138" r="1.5" fill="#ffe066" opacity="0.7"/><circle cx="118" cy="66" r="0.8" fill="#ffe066" opacity="0.7"/><circle cx="100" cy="188" r="1.8" fill="#ffe066" opacity="0.7"/><circle cx="158" cy="92" r="1.6" fill="#ffe066" opacity="0.7"/><circle cx="55" cy="66" r="1.9" fill="#ffe066" opacity="0.7"/><circle cx="191" cy="14" r="1.0" fill="#ffe066" opacity="0.7"/><circle cx="30" cy="97" r="1.6" fill="#ffe066" opacity="0.7"/><circle cx="135" cy="143" r="1.9" fill="#ffe066" opacity="0.7"/><circle cx="29" cy="171" r="2.0" fill="#ffe066" opacity="0.7"/><circle cx="63" cy="183" r="2.0" fill="#ffe066" opacity="0.7"/><circle cx="60" cy="125" r="1.8" fill="#ffe066" opacity="0.7"/><circle cx="111" cy="159" r="1.3" fill="#ffe066" opacity="0.7"/><circle cx="78" cy="66" r="1.9" fill="#ffe066" opacity="0.7"/>
  <circle cx="100" cy="105" r="52" fill="none" stroke="#ff5577" stroke-width="1.5" opacity="0.15"/><circle cx="100" cy="105" r="62" fill="none" stroke="#ff5577" stroke-width="1.5" opacity="0.22"/>
  <circle cx="100" cy="105" r="40" fill="#ff5577" opacity="0.9"/>
  <circle cx="100" cy="105" r="30" fill="#ffe066" opacity="0.85"/>
  <text x="100" y="30" text-anchor="middle" font-family="system-ui,sans-serif" font-size="11" font-weight="600" fill="#ffe066" opacity="0.75">Space Explorer</text>
  <text x="100" y="188" text-anchor="middle" font-family="system-ui,sans-serif" font-size="10" fill="#ff5577" opacity="0.8">Step 2 · ★★★</text>
</svg>