<svg xmlns="http://www.w3.org/2000/svg" viewBox="0 0 200 200" width="200" height="200">
  <rect width="200" height="200" rx="20" fill="#060d1a"/>
  <circle cx="12" cy="147" r="2.0" fill="#ffe066" opacity="0.7"/><circle cx="86" cy="195" r="0.8" fill="#ffe066" opacity="0.7"/><circle cx="22" cy="186" r="1.5" fill="#ffe066" opacity="0.7"/><circle cx="166" cy="82" r="1.9" fill="#ffe066" opacity="0.7"/><circle cx="101" cy="31" r="2.0" fill="#ffe066" opacity="0.7"/><circle cx="134" cy="29" r="2.2" fill="#ffe066" opacity="0.7"/><circle cx="109" cy="122" r="0.8" fill="#ffe066" opacity="0.7"/><circle cx="59" cy="58" r="1.3" fill="#ffe066" opacity="0.7"/><circle cx="49" cy="106" r="1.2" fill="#ffe066" opacity="0.7"/><circle cx="26" cy="126" r="1.4" fill="#ffe066" opacity="0.7"/><circle cx="80" cy="127" r="1.0" fill="#ffe066" opacity="0.7"/><circle cx="131" cy="100" r="1.4" fill="#ffe066" opacity="0.7"/><circle cx="102" cy="181" r="1.1" fill="#ffe066" opacity="0.7"/><circle cx="187" cy="15" r="1.9" fill="#ffe066" opacity="0.7"/><circle cx="70" cy="86" r="1.5" fill="#ffe066" opacity="0.7"/><circle cx="170" cy="100" r="1.3" fill="#ffe066" opacity="0.7"/><circle cx="177" cy="104" r="1.7" fill="#ffe066" opacity="0.7"/><circle cx="116" cy="156" r="1.9" fill="#ffe066" opacity="0.7"/><circle cx="47" cy="160" r="1.8" fill="#ffe066" opacity="0.7"/><circle cx="131" cy="176" r="1.5" fill="#ffe066" opacity="0.7"/>
  <circle cx="100" cy="105" r="100" fill="none" stroke="#ff5577" stroke-width="1.5" opacity="0.15"/><circle cx="100" cy="105" r="110" fill="none" stroke="#ff5577" stroke-width="1.5" opacity="0.22"/><circle cx="100" cy="105" r="120" fill="none" stroke="#ff5577" stroke-width="1.5" opacity="0.29"/><circle cx="100" cy="105" r="130" fill="none" stroke="#ff5577" stroke-width="1.5" opacity="0.36"/><circle cx="100" cy="105" r="140" fill="none" stroke="#ff5577" stroke-width="1.5" opacity="0.43"/>
  <circle cx="100" cy="105" r="88" fill="#ff5577" opacity="0.9"/>
  <circle cx="100" cy="105" r="78" fill="#ffe066" opacity="0.85"/>
  <text x="100" y="30" text-anchor="middle" font-family="system-ui,sans-serif" font-size="11" font-weight="600" fill="#ffe066" opacity="0.75">Space Explorer</text>
  <text x="100" y="188" text-anchor="middle" font-family="system-ui,sans-serif" font-size="10" fill="#ff5577" opacity="0.8">Step 5 · ✦✦✦✦✦✦</text>
</svg>