<svg xmlns="http://www.w3.org/2000/svg" viewBox="0 0 200 200" width="200" height="200">
  <rect width="200" height="200" rx="20" fill="#0d1b2a"/>
  <circle cx="62" cy="26" r="2.1" fill="#ffd700" opacity="0.7"/><circle cx="122" cy="10" r="1.0" fill="#ffd700" opacity="0.7"/><circle cx="81" cy="187" r="0.8" fill="#ffd700" opacity="0.7"/><circle cx="164" cy="7" r="2.1" fill="#ffd700" opacity="0.7"/><circle cx="129" cy="101" r="1.5" fill="#ffd700" opacity="0.7"/><circle cx="142" cy="81" r="1.9" fill="#ffd700" opacity="0.7"/><circle cx="191" cy="154" r="1.3" fill="#ffd700" opacity="0.7"/><circle cx="176" cy="50" r="2.2" fill="#ffd700" opacity="0.7"/><circle cx="139" cy="34" r="0.9" fill="#ffd700" opacity="0.7"/><circle cx="169" cy="15" r="2.0" fill="#ffd700" opacity="0.7"/><circle cx="83" cy="27" r="0.9" fill="#ffd700" opacity="0.7"/><circle cx="26" cy="149" r="1.7" fill="#ffd700" opacity="0.7"/><circle cx="27" cy="69" r="1.2" fill="#ffd700" opacity="0.7"/><circle cx="175" cy="153" r="2.0" fill="#ffd700" opacity="0.7"/><circle cx="194" cy="170" r="1.6" fill="#ffd700" opacity="0.7"/><circle cx="91" cy="151" r="1.0" fill="#ffd700" opacity="0.7"/><circle cx="108" cy="8" r="1.9" fill="#ffd700" opacity="0.7"/><circle cx="120" cy="77" r="1.6" fill="#ffd700" opacity="0.7"/><circle cx="62" cy="92" r="1.5" fill="#ffd700" opacity="0.7"/><circle cx="107" cy="195" r="1.2" fill="#ffd700" opacity="0.7"/>
  <circle cx="100" cy="105" r="82" fill="none" stroke="#e94560" stroke-width="1.5" opacity="0.15"/><circle cx="100" cy="105" r="92" fill="none" stroke="#e94560" stroke-width="1.5" opacity="0.22"/><circle cx="100" cy="105" r="102" fill="none" stroke="#e94560" stroke-width="1.5" opacity="0.29"/><circle cx="100" cy="105" r="112" fill="none" stroke="#e94560" stroke-width="1.5" opacity="0.36"/>
  <circle cx="100" cy="105" r="70" fill="#e94560" opacity="0.9"/>
  <circle cx="100" cy="105" r="60" fill="#ffd700" opacity="0.85"/>
  <text x="100" y="30" text-anchor="middle" font-family="system-ui,sans-serif" font-size="11" font-weight="600" fill="#ffd700" opacity="0.75">Space Explorer</text>
  <text x="100" y="188" text-anchor="middle" font-family="system-ui,sans-serif" font-size="10" fill="#e94560" opacity="0.8">Step 4 · ★★★★★</text>
</svg>