<svg xmlns="http://www.w3.org/2000/svg" viewBox="0 0 200 200" width="200" height="200">
  <rect width="200" height="200" rx="20" fill="#0a1628"/>
  <circle cx="42" cy="117" r="1.3" fill="#ffcc00" opacity="0.7"/><circle cx="46" cy="66" r="1.1" fill="#ffcc00" opacity="0.7"/><circle cx="182" cy="131" r="1.0" fill="#ffcc00" opacity="0.7"/><circle cx="94" cy="12" r="1.1" fill="#ffcc00" opacity="0.7"/><circle cx="190" cy="130" r="1.8" fill="#ffcc00" opacity="0.7"/><circle cx="49" cy="109" r="1.5" fill="#ffcc00" opacity="0.7"/><circle cx="181" cy="99" r="1.7" fill="#ffcc00" opacity="0.7"/><circle cx="28" cy="102" r="0.9" fill="#ffcc00" opacity="0.7"/><circle cx="129" cy="15" r="1.8" fill="#ffcc00" opacity="0.7"/><circle cx="182" cy="89" r="1.8" fill="#ffcc00" opacity="0.7"/><circle cx="121" cy="25" r="2.1" fill="#ffcc00" opacity="0.7"/><circle cx="122" cy="29" r="1.7" fill="#ffcc00" opacity="0.7"/><circle cx="66" cy="52" r="1.4" fill="#ffcc00" opacity="0.7"/><circle cx="93" cy="61" r="2.2" fill="#ffcc00" opacity="0.7"/><circle cx="86" cy="124" r="1.2" fill="#ffcc00" opacity="0.7"/><circle cx="21" cy="13" r="1.6" fill="#ffcc00" opacity="0.7"/><circle cx="184" cy="146" r="1.3" fill="#ffcc00" opacity="0.7"/><circle cx="17" cy="42" r="1.2" fill="#ffcc00" opacity="0.7"/><circle cx="182" cy="74" r="1.3" fill="#ffcc00" opacity="0.7"/><circle cx="10" cy="140" r="1.9" fill="#ffcc00" opacity="0.7"/>
  <circle cx="100" cy="105" r="100" fill="none" stroke="#c23152" stroke-width="1.5" opacity="0.15"/><circle cx="100" cy="105" r="110" fill="none" stroke="#c23152" stroke-width="1.5" opacity="0.22"/><circle cx="100" cy="105" r="120" fill="none" stroke="#c23152" stroke-width="1.5" opacity="0.29"/><circle cx="100" cy="105" r="130" fill="none" stroke="#c23152" stroke-width="1.5" opacity="0.36"/><circle cx="100" cy="105" r="140" fill="none" stroke="#c23152" stroke-width="1.5" opacity="0.43"/>
  <circle cx="100" cy="105" r="88" fill="#c23152" opacity="0.9"/>
  <circle cx="100" cy="105" r="78" fill="#ffcc00" opacity="0.85"/>
  <text x="100" y="30" text-anchor="middle" font-family="system-ui,sans-serif" font-size="11" font-weight="600" fill="#ffcc00" opacity="0.75">Space Explorer</text>
  <text x="100" y="188" text-anchor="middle" font-family="system-ui,sans-serif" font-size="10" fill="#c23152" opacity="0.8">Step 5 · ✦✦✦✦✦✦</text>
</svg>