<svg xmlns="http://www.w3.org/2000/svg" viewBox="0 0 200 200" width="200" height="200">
  <rect width="200" height="200" rx="20" fill="#0d1b2a"/>
  <circle cx="23" cy="157" r="1.8" fill="#ffd700" opacity="0.7"/><circle cx="52" cy="93" r="1.8" fill="#ffd700" opacity="0.7"/><circle cx="163" cy="100" r="1.2" fill="#ffd700" opacity="0.7"/><circle cx="188" cy="180" r="2.2" fill="#ffd700" opacity="0.7"/><circle cx="38" cy="184" r="1.8" fill="#ffd700" opacity="0.7"/><circle cx="64" cy="102" r="1.0" fill="#ffd700" opacity="0.7"/><circle cx="11" cy="182" r="1.9" fill="#ffd700" opacity="0.7"/><circle cx="121" cy="8" r="1.4" fill="#ffd700" opacity="0.7"/><circle cx="80" cy="28" r="1.5" fill="#ffd700" opacity="0.7"/><circle cx="190" cy="9" r="2.0" fill="#ffd700" opacity="0.7"/><circle cx="70" cy="73" r="1.3" fill="#ffd700" opacity="0.7"/><circle cx="61" cy="100" r="2.0" fill="#ffd700" opacity="0.7"/><circle cx="167" cy="68" r="1.3" fill="#ffd700" opacity="0.7"/><circle cx="132" cy="183" r="1.1" fill="#ffd700" opacity="0.7"/><circle cx="109" cy="151" r="1.3" fill="#ffd700" opacity="0.7"/><circle cx="121" cy="60" r="0.9" fill="#ffd700" opacity="0.7"/><circle cx="89" cy="112" r="0.9" fill="#ffd700" opacity="0.7"/><circle cx="23" cy="42" r="1.2" fill="#ffd700" opacity="0.7"/><circle cx="118" cy="130" r="0.9" fill="#ffd700" opacity="0.7"/><circle cx="174" cy="143" r="1.5" fill="#ffd700" opacity="0.7"/>
  <circle cx="100" cy="105" r="100" fill="none" stroke="#e94560" stroke-width="1.5" opacity="0.15"/><circle cx="100" cy="105" r="110" fill="none" stroke="#e94560" stroke-width="1.5" opacity="0.22"/><circle cx="100" cy="105" r="120" fill="none" stroke="#e94560" stroke-width="1.5" opacity="0.29"/><circle cx="100" cy="105" r="130" fill="none" stroke="#e94560" stroke-width="1.5" opacity="0.36"/><circle cx="100" cy="105" r="140" fill="none" stroke="#e94560" stroke-width="1.5" opacity="0.43"/>
  <circle cx="100" cy="105" r="88" fill="#e94560" opacity="0.9"/>
  <circle cx="100" cy="105" r="78" fill="#ffd700" opacity="0.85"/>
  <text x="100" y="30" text-anchor="middle" font-family="system-ui,sans-serif" font-size="11" font-weight="600" fill="#ffd700" opacity="0.75">Space Explorer</text>
  <text x="100" y="188" text-anchor="middle" font-family="system-ui,sans-serif" font-size="10" fill="#e94560" opacity="0.8">Step 5 · ✦✦✦✦✦✦</text>
</svg>